<?xml version="1.0" encoding="UTF-8"?>
<svg version="1.1" viewBox="0 0 2000 2000" width="1280" height="1280" xmlns="http://www.w3.org/2000/svg">
<path transform="translate(338,839)" d="m0 0h41l9 1 3 5-2 9-3 2h-36l-14 1-8 4-5 6-6 15-13 38-13 40-15 43-10 29-7 13-6 6h-2l3 6 6 8 4 12v14l-3 10-7 11-5 6 16 1 28 5 25 6 4 4-1 8-4 5-9-1-29-6-43-7-43-4h-66l-47 4-29 5-20 4-20 6-4-1-3-4-1-7 5-5 16-6 24-5 24-4-8-13-4-11v-16l4-11 7-10 8-7 8-4 8-2h107l29-1 10-4 6-7 4-9 1-5h-171l-7-4-4-7-6-18-17-63-8-27-1-5v-10l5-8 6-4 6-2h203l22 1 7 5v6l-4 5-4 1-223 1 4 17 10 37 15 55v3h173l10-28h-165l-6-4-2-4 1-5 6-5 172-1 8-23h-198l-5-2-1-2v-6l4-6 3-1 203-1 6-16 8-23 6-14 8-10 10-6zm-245 221-8 4-6 8-3 9v8l5 10 8 7 4 2 9 1 9-2 7-4 6-9 1-5v-11l-3-8-4-5-6-4-3-1zm43 0 2 6 4 13v10l-4 13-4 6-1 3 57 1-1-4-6-12-2-10 1-9 5-14 1-3zm78 0-8 5-6 8-2 6v11l4 8 4 5 6 4 8 2 10-1 8-4 6-8 3-7v-11l-5-10-7-6-5-2z" fill="#86CC8D"/>
<path transform="translate(1389,882)" d="m0 0 21 1 19 4 15 6 14 9 10 9 7 7 7 11 5 10 5 15 2 12-2 1h-47l-5-12-6-11-7-7-8-5-12-4-6-1h-15l-13 3-13 7-10 10-8 14-5 16-2 13v25l2 14 5 15 6 11 9 10 8 6 13 5 13 2 14-1 15-5 11-8 8-11 5-14h39l10 1 1 2-5 18-8 16-9 13-10 10-13 9-14 7-17 5-13 2h-26l-20-4-19-8-14-9-10-9-9-10-8-13-5-10-6-18-3-15-1-14v-22l2-18 4-16 8-19 9-14 11-12 7-7 14-9 16-7 15-4 5-1z" fill="#FEFEFE"/>
<path transform="translate(1097,886)" d="m0 0h46l1 1 1 87 9-14 7-7 9-6 11-4 5-1h23l12 3 12 6 10 9 6 8 5 10 4 15 1 10v115l-4 1h-44l-1-1-1-111-4-11-7-8-8-4-4-1h-14l-10 3-9 8-5 9-2 12-1 103-2 1h-45l-1-1z" fill="#FEFEFE"/>
<path transform="translate(457,886)" d="m0 0h154v39l-1 1h-104v56h94l1 1v16l-1 23-1 1h-93v94l-2 2h-47l-1-3v-229z" fill="#FEFEFE"/>
<path transform="translate(1579,942)" d="m0 0h27l16 3 13 5 12 7 9 9 7 11 4 14v127l-3 1h-42l-1-1v-22l-5 5-7 8-11 7-10 4-9 2h-23l-12-3-14-7-9-8-6-10-4-13v-22l3-10 6-10 9-9 16-8 16-4 39-5 13-4 3-1 1-4v-11l-4-8-5-4-9-3h-14l-11 4-8 7-5 8-19-1-24-2-1-4 5-12 7-11 10-10 14-8 10-4zm36 97-17 4-25 5-9 5-5 6-2 5v10l3 6 7 6 10 3h10l12-3 11-7 6-9 2-5 1-6v-20z" fill="#FDFDFD"/>
<path transform="translate(808,942)" d="m0 0h27l17 4 12 5 13 9 8 8 9 14 6 15 3 13 1 9v24l-2 1h-117l3 16 5 10 7 8 12 6 4 1h17l12-4 10-9 3-6 24 1 21 2-3 11-5 10-9 11-10 8-17 8-16 4-5 1h-28l-18-4-12-5-10-6-10-9-7-8-8-14-6-19-2-18v-14l2-17 5-16 9-17 9-11 11-9 15-8 14-4zm8 36-10 3-11 8-6 9-3 8-1 7 1 1h72l1-2-3-13-6-10-9-7-7-3-6-1z" fill="#FDFDFD"/>
<path transform="translate(982,942)" d="m0 0h29l17 3 12 5 10 6 10 9 7 11 5 15v2l-2 1-41 3-3-3-4-8-5-4-9-4-6-1h-10l-10 3-6 4-3 5v9l4 6 8 4 21 5 28 6 14 5 12 7 8 8 6 12 2 12-1 12-4 12-9 13-10 8-16 8-13 4-12 2h-30l-18-4-12-5-10-6-10-9-8-13-4-12v-5l36-2h11l4 8 6 7 9 4 4 1h19l10-4 5-4 2-4v-8l-4-6-8-5-27-6-25-6-12-5-10-6-8-9-6-12-2-11v-9l3-13 5-10 8-9 14-9 13-5z" fill="#FDFDFD"/>
<path transform="translate(1837,902)" d="m0 0h48l1 1v41h32l1 1v33l-1 1-32 1 1 93 2 5 7 3h17l2 2 6 30-1 4-11 3-7 1h-22l-13-3-10-5-10-9-6-10-3-9-1-6v-100l-13 1h-10l-1-1v-35l23-1z" fill="#FEFEFE"/>
<path transform="translate(1783,941)" d="m0 0 17 1 1 1v42l-5 1-3-1h-21l-11 4-10 9-5 10-1 5-1 105-4 1h-44l-1-1v-174h46l1 1v29l3-4 6-11 7-8 13-8z" fill="#FDFDFD"/>
<path transform="translate(711,942)" d="m0 0h24l2 2v41l-3 1-4-1h-23l-12 5-7 6-5 9-3 10-1 103-3 1h-44l-1-1v-174h46l1 1v22l-1 8h2l2-6 6-11 8-8 10-6z" fill="#FDFDFD"/>
<path transform="translate(98,1072)" d="m0 0 10 2 5 6v9l-4 5-4 2h-8l-5-3-3-6v-6l4-6z" fill="#86CC8D"/>
<path transform="translate(216,1073)" d="m0 0h11l6 4 1 2v10l-4 5-5 2-9-1-4-4-2-8 3-8z" fill="#86CC8D"/>
</svg>
